# xmcd
#
# Track frame offsets:
# 150
# 14851
# 33555
# 51977
# 66373
# 82414
# 98136
# 110441
# 123438
# 141807
# 153865
# 169125
# 184349
# 199511
# 215241
# 230387
# 246965
# 259709
# 274157
# 286919
#
# Disc length: 4011 seconds
#
# Revision: 0
# Processed by: cddbd v1.4PL0 Copyright (c) Steve Scherf et al.
# Submitted via: Axialis_AX_CDPlayer 2.6
#
DISCID=360fa914
DTITLE=Ataíde and Alexandre - As 20 Mais
DYEAR=1900
DGENRE=
TTITLE0=Liguei Pra Dizer Que Te Amo
TTITLE1=Café No Bule
TTITLE2=Pelo Interfone
TTITLE3=Apaixonado Por Você
TTITLE4=Não Adianta Dizer Não
TTITLE5=Ô De Casa, Ô De Fora
TTITLE6=Sucumbiu
TTITLE7=Abandono Ou Tarição
TTITLE8=Laço Aberto
TTITLE9=Estrado do Amor
TTITLE10=Barretezão
TTITLE11=Amar Você Eu Sei
TTITLE12=Por Onde Andara Você
TTITLE13=Agenda Rabiscada
TTITLE14=Coração de Vidro
TTITLE15=Página de Amigo
TTITLE16=Piseiro
TTITLE17=Larga Dele
TTITLE18=Comer Comer
TTITLE19=Coração Vai Lá
EXTD=
EXTT0=
EXTT1=
EXTT2=
EXTT3=
EXTT4=
EXTT5=
EXTT6=
EXTT7=
EXTT8=
EXTT9=
EXTT10=
EXTT11=
EXTT12=
EXTT13=
EXTT14=
EXTT15=
EXTT16=
EXTT17=
EXTT18=
EXTT19=
PLAYORDER=
